# xmcd
#
# Track frame offsets: 
#        150
#        19977
#        36732
#        59202
#        75206
#        92239
#        110760
#        129969
#        152111
#        170680
#        191140
#        208659
#        228654
#        245622
#        263167
#        283166
#        299467
#
# Disc length: 4255 seconds
#
# Revision: 0
# Processed by: cddbd v1.5.2PL0 Copyright (c) Steve Scherf et al.
# Submitted via: ExactAudioCopyFreeDBPlugin 1.0
#
DISCID=0c109d11
DTITLE=Jennifer Lopez - J.Lo
DYEAR=2001
DGENRE=R&B
TTITLE0=v
TTITLE1=Love Don't Cost A Thing
TTITLE2=I'm Real
TTITLE3=n
TTITLE4=Walking On Sunshine
TTITLE5=Ain't It Funny
TTITLE6=z
TTITLE7=z
TTITLE8=z
TTITLE9=That's Not Me
TTITLE10=z
TTITLE11=z
TTITLE12=z
TTITLE13=z
TTITLE14=Dame (Touch Me) Feat. Chayanne
TTITLE15=z
TTITLE16=z
EXTD=
EXTT0=
EXTT1=
EXTT2=
EXTT3=
EXTT4=
EXTT5=
EXTT6=
EXTT7=
EXTT8=
EXTT9=
EXTT10=
EXTT11=
EXTT12=
EXTT13=
EXTT14=
EXTT15=
EXTT16=
PLAYORDER=
